<mxfile host="65bd71144e">
    <diagram id="wlmCIGzZOWqfxRInBIPC" name="第 1 页">
        <mxGraphModel dx="402" dy="593" grid="1" gridSize="10" guides="1" tooltips="1" connect="1" arrows="1" fold="1" page="1" pageScale="1" pageWidth="827" pageHeight="1169" math="0" shadow="0">
            <root>
                <mxCell id="0"/>
                <mxCell id="1" parent="0"/>
                <mxCell id="2" value="&lt;font style=&quot;font-size: 70px;&quot; face=&quot;LXGW Wenkai Screen&quot;&gt;Ka2Jax&lt;/font&gt;" style="whiteSpace=wrap;html=1;aspect=fixed;sketch=1;hachureGap=4;jiggle=2;curveFitting=1;fontFamily=Architects Daughter;fontSource=https%3A%2F%2Ffonts.googleapis.com%2Fcss%3Ffamily%3DArchitects%2BDaughter;fontSize=20;" vertex="1" parent="1">
                    <mxGeometry x="80" y="610" width="260" height="260" as="geometry"/>
                </mxCell>
                <mxCell id="3" value="$$" style="rounded=0;whiteSpace=wrap;html=1;sketch=1;hachureGap=4;jiggle=2;curveFitting=1;fontFamily=Helvetica;fontSize=40;" vertex="1" parent="1">
                    <mxGeometry x="170" y="820" width="60" as="geometry"/>
                </mxCell>
                <mxCell id="4" value="()[]" style="rounded=1;html=1;sketch=1;hachureGap=4;jiggle=2;curveFitting=1;fontFamily=Helvetica;fontSize=40;labelBorderColor=none;fontColor=default;" vertex="1" parent="1">
                    <mxGeometry x="195" y="650" width="10" as="geometry"/>
                </mxCell>
            </root>
        </mxGraphModel>
    </diagram>
</mxfile>